<?xml version="1.0" encoding="UTF-8" standalone="no"?>
<svg
   version="1.1"
   id="Layer_1"
   x="0px"
   y="0px"
   width="4762.21"
   viewBox="0 0 4762.21 862.74329"
   enable-background="new 0 0 992 864"
   xml:space="preserve"
   sodipodi:docname="logo_inline.svg"
   inkscape:version="1.2.2 (b0a8486541, 2022-12-01)"
   height="862.74329"
   xmlns:inkscape="http://www.inkscape.org/namespaces/inkscape"
   xmlns:sodipodi="http://sodipodi.sourceforge.net/DTD/sodipodi-0.dtd"
   xmlns:xlink="http://www.w3.org/1999/xlink"
   xmlns="http://www.w3.org/2000/svg"
   xmlns:svg="http://www.w3.org/2000/svg"><defs
   id="defs1220"><linearGradient
     inkscape:collect="always"
     id="linearGradient1995"><stop
       style="stop-color:#1e00ff;stop-opacity:1;"
       offset="0"
       id="stop1991" /><stop
       style="stop-color:#000000;stop-opacity:0.21580189;"
       offset="0.5"
       id="stop3451" /><stop
       style="stop-color:#ff1717;stop-opacity:0.61303556;"
       offset="1"
       id="stop1993" /></linearGradient><radialGradient
     inkscape:collect="always"
     xlink:href="#linearGradient1995"
     id="radialGradient1997"
     cx="484.12582"
     cy="515.55566"
     fx="484.12582"
     fy="515.55566"
     r="434.29529"
     gradientTransform="matrix(0.99999854,0.0017069,-0.00269628,1.579557,-40.991165,-302.42842)"
     gradientUnits="userSpaceOnUse"
     spreadMethod="reflect" /></defs><sodipodi:namedview
   id="namedview1218"
   pagecolor="#ffffff"
   bordercolor="#000000"
   borderopacity="0.25"
   inkscape:showpageshadow="2"
   inkscape:pageopacity="0.0"
   inkscape:pagecheckerboard="0"
   inkscape:deskcolor="#d1d1d1"
   showgrid="false"
   inkscape:zoom="0.19187498"
   inkscape:cx="2650.1632"
   inkscape:cy="1662.5409"
   inkscape:window-width="1920"
   inkscape:window-height="1131"
   inkscape:window-x="0"
   inkscape:window-y="0"
   inkscape:window-maximized="1"
   inkscape:current-layer="Layer_1" />

<path
   id="path1215"
   d="m 807.87867,160.49336 c 13.52765,19.45541 25.42419,39.46912 35.91205,60.31514 8.31128,16.5197 15.48401,33.54173 22.24371,50.74492 1.23352,3.13943 1.9989,6.29953 1.97888,9.70593 -0.069,11.70136 -0.0266,23.40335 -0.26269,35.04303 C 823.16773,168.24362 730.77717,62.802829 587.7682,1.2299119 c 3.16052,-1.35061598 5.80017,-0.59157098 8.29333,-0.88647398 13.4082,-1.58593902 25.20306,2.49957298 37.10736,8.57280298 54.68054,27.8965131 102.19098,64.9038831 142.8758,110.7311391 11.38714,12.8265 21.55511,26.66751 31.83398,40.84598 z M 195.08671,862.7433 c -6.74115,-7.22559 -14.93447,-12.20624 -22.06949,-18.43158 -20.60909,-17.98157 -40.1559,-36.98279 -58.50481,-57.30023 -9.56788,-10.59424 -21.072338,-19.328 -31.104618,-29.55902 C 56.298083,729.80543 33.111201,699.27711 15.241126,664.87861 10.413371,655.58558 6.5158028,645.80482 2.3036748,636.19868 c -1.55144095,-3.5382 -2.04093195,-7.30706 -2.03340495,-11.21252 0.06358,-32.99933 0.628765,-66.01465 -0.249813,-98.99066 -0.361901,-13.58326 4.10687195,-24.65396 11.10939815,-35.39679 13.11248,-20.11646 29.547012,-37.23508 47.518917,-53.0351 23.01739,-20.23593 47.964948,-38.06015 72.369358,-58.47699 -48.978378,18.27588 -92.512299,43.2782 -129.2721522,79.41977 -2.07260495,-2.42709 -1.39844095,-4.50476 -1.40109295,-6.38867 -0.04787,-33.9993 0.08059,-67.99942 -0.114948,-101.99768 -0.05147,-8.94821 1.45988495,-17.5636 3.62900595,-26.12207 C 15.75669,277.05446 33.903056,232.6065 58.312772,190.82567 c 17.5977,-30.12107 38.42665,-57.9132 62.034178,-83.70025 21.82576,-23.840788 46.15385,-44.741308 72.22522,-63.629888 22.56871,-16.350918 46.78737,-30.046434 71.93361,-42.0738901 0.74578,-0.356713 1.54098,-0.86189098 2.31607,-0.86718598 8.94925,-0.061133 17.89907,-0.039018 27.21762,0.64792898 C 208.47042,37.13275 139.30975,93.273715 87.377432,169.73808 35.686045,245.84768 5.3031528,329.44197 3.4751498,422.32139 c 3.21725,0.89496 4.372783,-1.17297 5.795955,-2.30911 31.6306162,-25.25162 66.6591072,-44.53296 104.1251552,-59.59286 25.82367,-10.38013 52.30384,-18.75788 79.06392,-26.31067 1.59004,-0.44876 3.16483,-0.89533 4.2596,-2.38208 14.0424,-19.07019 30.87352,-35.7916 45.63698,-54.27118 29.05545,-36.3691 55.69018,-74.36647 79.20569,-114.56452 21.80911,-37.28108 41.03854,-75.846114 58.21982,-115.44424 6.22564,-14.34835 12.76965,-28.584579 17.44732,-43.5557781 0.74469,-2.383474 2.01789,-3.72105998 4.64902,-3.51757298 2.62189,0.20277 5.31171,-0.457762 8.79739,0.89895898 C 388.82673,61.181445 361.5171,118.34601 329.09904,173.14873 296.63633,228.0269 258.94907,279.04527 215.99247,326.22438 c 0.27017,0.38217 0.54034,0.76437 0.81052,1.14657 7.19247,-1.61215 14.40106,-3.15582 21.57446,-4.84884 24.48465,-5.77878 49.32388,-9.48316 74.20596,-13.01856 34.45389,-4.89547 68.98755,-8.77148 103.82935,-9.07635 4.43057,-0.0388 4.22027,-2.69482 4.21771,-5.61347 -0.0227,-25.83276 -0.0541,-51.66554 -0.0678,-77.49832 -0.0374,-70.332 -0.0347,-140.664071 -0.17752,-210.9958501 -0.009,-4.473111 1.18854,-6.19573198 5.90338,-6.04613198 9.98972,0.31697 19.99661,0.082184 29.9964,0.09913 6.63467,0.011243 6.65137,0.031008 6.65079,6.58314498 -0.007,82.8319281 -0.0204,165.6638671 -0.0306,248.4957871 -0.002,12.8331 0.11563,25.66779 -0.0627,38.49838 -0.0535,3.84668 0.82355,5.68076 5.12943,5.87497 15.1315,0.68247 30.2645,1.50495 45.36343,2.69803 22.89807,1.80924 45.63099,5.03366 68.37628,8.23166 20.27912,2.85126 40.30921,6.89905 60.36792,10.86975 6.82483,1.35095 13.61628,2.87042 20.9104,3.73105 C 619.97059,278.24324 581.72596,227.76314 548.80909,173.28166 515.83765,118.71004 488.44923,61.519496 467.0911,1.3825939 c 9.04526,-2.647755 11.68949,-1.70603798 14.52445,6.20488 7.02704,19.6092201 15.10614,38.7964241 23.75543,57.7061691 9.27759,20.283287 19.03204,40.369707 29.74744,59.957397 15.19525,27.77677 31.67181,54.77629 49.10076,81.20768 16.06269,24.35947 33.97187,47.31208 52.50928,69.80384 12.82508,15.56073 26.66315,30.22131 40.02747,45.30282 1.09784,1.2388 1.96655,2.67758 2.99548,3.98099 3.2262,4.08655 6.77985,7.21454 12.20227,8.79379 36.64038,10.67139 72.81879,22.71979 107.21466,39.47257 22.94403,11.17508 44.79688,24.24432 65.3725,39.38858 1.45624,1.07187 3.32898,2.065 3.35101,4.11496 0.0976,9.09622 0.0423,18.19403 0.0423,28.84567 -35.13873,-30.14868 -74.17859,-50.67456 -116.21277,-66.09094 8.02533,6.36883 15.95777,12.85907 24.09332,19.08383 24.74622,18.93396 49.50562,37.85709 71.14661,60.42422 6.56018,6.84092 13.00623,13.80823 18.52912,21.59263 2.52038,3.55246 2.99011,7.37918 2.98297,11.35452 -0.0465,25.80719 -0.21869,51.6142 -0.30713,77.42139 -0.009,2.66363 -1.01062,4.74682 -2.70319,6.75457 -20.45764,24.2674 -45.25757,43.09857 -72.9555,58.27942 -2.3393,1.28217 -3.9234,3.02869 -5.19172,5.19684 -13.92608,23.80762 -32.99328,42.97046 -54.38061,59.99304 -22.24683,17.70673 -46.36096,32.42383 -72.00464,44.69672 -17.13812,8.20215 -34.55987,15.7652 -52.6405,21.54468 -23.79114,7.60467 -48.02277,13.5589 -72.70294,17.67535 -32.93964,5.49408 -66.13627,7.88617 -99.45594,7.44214 -26.60385,-0.35443 -53.16589,-1.91589 -79.57644,-6.0343 -21.90906,-3.41645 -43.61707,-7.48798 -64.88834,-13.69471 -29.48422,-8.60333 -57.95581,-19.76824 -85.1268,-34.18756 -26.92708,-14.28997 -51.71675,-31.54943 -73.86415,-52.5368 -13.4856,-12.7793 -25.27057,-26.98737 -35.274278,-42.6355 -2.50308,-3.91528 -5.65832,-6.81671 -9.68634,-9.07123 -29.56762,-16.54919 -55.098806,-37.82593 -75.729192,-64.84027 -1.239121,-1.62256 -2.2904092,-3.65771 -5.0988812,-4.61529 0.814258,10.61126 2.540043,20.7221 5.4886322,30.52765 12.083004,40.18243 31.880932,76.31146 57.558441,109.4085 14.76072,19.02588 31.379048,36.24616 48.931028,52.628 9.31273,8.69195 21.17341,13.14123 32.32557,18.63751 26.62812,13.12341 54.26361,23.95587 82.53057,32.86547 35.2612,11.11402 71.26541,18.98707 108.0184,24.02503 35.9082,4.92218 71.89697,7.47327 108.01309,7.1499 28.25022,-0.25293 56.46585,-2.3219 84.58408,-6.12311 18.64465,-2.5205 37.31323,-5.06335 55.60174,-9.10626 23.19355,-5.1272 46.22888,-11.17407 68.75318,-19.03735 28.33722,-9.89246 55.99139,-21.2638 83.07452,-34.22174 15.26025,-7.30133 27.15723,-18.30561 38.76605,-30.05725 24.3479,-24.64734 46.10645,-51.27539 62.97449,-81.65656 8.41357,-15.15362 16.13013,-30.65869 21.78381,-47.10467 0.42066,-1.22364 1.03962,-2.37897 1.87604,-4.26404 2.06677,4.56103 0.9466,8.68127 1.0246,12.62463 0.23395,11.82605 -0.17444,23.67426 0.36853,35.48163 0.4273,9.29102 -3.63147,16.67206 -8.16718,24.09863 -23.28021,38.11847 -52.18982,71.37037 -85.66113,100.91388 -11.95203,10.54944 -22.30298,22.89685 -33.5954,34.21332 -16.95843,16.99457 -35.42218,32.29053 -54.33447,47.54797 -12.87091,0.27747 -25.55847,0.27747 -38.57434,-0.0294 15.24622,-12.25379 30.70111,-24.34839 45.3067,-37.4834 2.46704,-2.21875 4.84522,-4.53644 7.26447,-6.80835 -1.90699,-0.40967 -3.18036,-0.0986 -4.38196,0.38903 -35.107,14.24866 -71.31427,24.73926 -108.45264,32.18464 -20.0816,4.02588 -40.27148,7.19482 -60.60394,9.61767 -6.5791,0.784 -13.30731,0.4466 -19.74164,2.40729 -44.02091,0 -88.04178,0 -132.86645,-0.19421 -3.26481,-0.58246 -5.7158,-1.21949 -8.18845,-1.31891 -16.66394,-0.66974 -33.07623,-3.56116 -49.45847,-6.21601 -24.45862,-3.96374 -48.58838,-9.72436 -72.36749,-16.72418 -14.97827,-4.40912 -30.10266,-8.43799 -44.50775,-14.65515 -5.86669,-2.53204 -11.9222,-4.62665 -18.64069,-7.20807 0.70153,2.8161 2.12751,3.74274 3.22185,4.91821 8.77353,9.42457 19.02118,17.1485 29.03505,25.13599 6.87427,5.48328 13.84485,10.84583 20.7724,16.26233 -13.02091,0 -26.04179,0 -39.53134,0 m 26.53631,-402.51437 c 3.85736,-3.42462 7.51011,-7.11835 11.60431,-10.23151 33.6969,-25.6225 71.90705,-41.49539 112.70969,-51.57001 22.84888,-5.64163 46.18564,-8.09829 69.62289,-9.55118 3.64008,-0.22564 5.05963,-1.38055 4.95206,-5.03164 -0.17172,-5.82688 0.007,-11.66336 -0.0154,-17.49555 -0.0247,-6.55038 -0.0778,-6.85473 -6.83554,-6.23748 -10.92703,0.99801 -21.79123,2.69406 -32.72095,3.64947 -30.51431,2.66742 -60.17557,9.77429 -89.19009,18.93213 -35.81275,11.30353 -69.89832,26.80206 -101.21169,47.93018 -25.12182,16.95047 -48.84421,35.36578 -65.87015,61.01623 -15.84561,23.87222 -21.63554,49.91843 -15.81146,78.08371 4.56508,22.07678 17.30739,39.72968 32.13054,56.03052 3.67796,4.04461 7.18111,8.8706 11.8309,11.27765 9.26975,4.79876 19.20973,8.35003 28.99762,12.09021 17.25502,6.59338 34.7283,12.56335 52.28061,18.34131 15.34491,5.05126 30.80322,9.71673 46.42352,13.69799 32.09708,8.18091 64.61213,14.18207 97.60035,17.71839 32.63574,3.49841 65.22857,5.41858 98.04934,2.81842 29.89142,-2.36811 59.51722,-6.36139 88.90137,-12.26428 20.57129,-4.13251 40.92389,-9.23835 61.01648,-15.19196 33.52698,-9.93451 66.59845,-21.25934 98.77277,-35.05719 2.40722,-1.03235 5.15252,-1.11353 7.17297,-3.23718 8.84399,-9.29614 17.39331,-18.81678 25.06458,-29.13861 19.23596,-25.88245 23.82336,-54.47156 15.59722,-85.22693 -6.69091,-25.0156 -22.1278,-44.60999 -40.93225,-61.53147 -38.2185,-34.39132 -82.84375,-57.76705 -131.23535,-74.23443 -28.8667,-9.82318 -58.42962,-17.0582 -88.64782,-21.25858 -14.3263,-1.99142 -28.78736,-3.00155 -43.17447,-4.57464 -4.72727,-0.51685 -6.20731,1.5448 -6.00495,6.00802 0.25644,5.65488 0.31238,11.33954 0.0373,16.99106 -0.20843,4.28171 1.2009,5.80844 5.63895,5.90399 17.99991,0.38751 35.80783,3.0748 53.46414,6.21781 27.95838,4.97693 54.72186,13.91333 80.47785,26.03186 27.90673,13.13049 53.34362,29.49279 72.84997,53.80511 12.77716,15.92526 21.47894,33.79282 21.59735,54.68106 0.1399,24.66352 -10.27667,45.10926 -26.92151,62.62555 -22.60833,23.79218 -50.67889,39.24487 -80.64434,51.46851 -37.30188,15.21649 -76.3534,23.08813 -116.41254,26.16766 -27.8121,2.13812 -55.53879,0.73993 -83.22461,-2.39313 -25.07129,-2.83721 -49.53784,-8.38421 -73.53702,-16.0072 -21.32208,-6.7727 -41.73703,-15.61407 -61.02688,-27.08661 -23.20456,-13.8009 -43.99376,-30.07306 -57.55434,-54.04223 -9.76367,-17.258 -13.80708,-35.44641 -9.15221,-55.23468 5.1118,-21.73072 17.23682,-39.06418 33.33084,-54.89035 m 367.4249,36.66305 c 10.72962,18.04651 12.63092,36.6695 2.73175,55.58295 -7.46301,14.25885 -19.22009,24.57971 -32.89294,32.6861 -26.24866,15.5625 -54.99579,23.69824 -85.10785,26.54412 -37.22727,3.51838 -74.16052,1.6886 -110.21158,-9.5346 -22.83875,-7.10999 -44.37402,-16.57166 -60.98404,-34.52076 -15.07672,-16.29211 -21.25089,-35.26843 -14.54471,-57.02661 5.01819,-16.28155 15.60764,-28.7749 29.01175,-39.07647 21.16632,-16.26716 45.70017,-24.12177 71.43976,-29.14798 8.83975,-1.72617 17.7439,-2.70777 26.71777,-3.23157 3.38413,-0.19754 5.60477,-1.27896 5.29013,-5.44861 -0.35009,-4.63928 -0.0335,-9.32593 -0.0904,-13.99091 -0.11157,-9.15048 1.11997,-9.48776 -8.36801,-7.70034 -1.30356,0.24551 -2.64298,0.32656 -3.97034,0.41619 -16.82138,1.13599 -33.27414,4.6738 -49.5975,8.49125 -28.17584,6.58932 -54.97769,17.0538 -80.27271,31.17196 -21.46698,11.98157 -40.8071,26.49753 -53.89511,47.88117 -8.42969,13.77276 -13.27075,28.3518 -7.81424,44.62628 6.10202,18.19965 18.0965,31.93506 32.96122,43.52228 22.7528,17.7362 48.67529,29.10077 75.73934,38.40033 26.1117,8.97229 52.91593,14.35492 80.33158,16.93353 20.07132,1.88782 40.14575,2.79407 60.32065,1.13446 23.91012,-1.96692 47.63565,-4.93915 70.81118,-11.29169 29.67243,-8.13354 58.21454,-19.02136 84.19288,-35.84863 16.9909,-11.0058 31.86376,-24.21844 41.33044,-42.45636 4.36694,-8.41327 7.6626,-17.36951 6.57989,-27.22375 -1.77905,-16.19147 -9.53173,-29.59098 -19.75622,-41.77301 -13.07569,-15.57911 -29.66766,-26.60697 -47.4057,-36.05189 -22.28168,-11.86425 -45.68561,-21.24511 -70.04578,-27.51138 -20.89233,-5.3742 -42.17078,-9.58294 -63.85791,-10.96002 -3.58853,-0.22784 -4.96182,0.82095 -4.94183,4.25189 0.032,5.49857 0.21243,11.01056 -0.10117,16.49222 -0.24725,4.32144 1.02509,6.08087 5.66373,6.55414 27.43902,2.79965 54.44287,7.64447 79.10553,20.85068 16.60126,8.88958 31.76868,19.62765 41.63043,37.25503 m 41.93598,203.86926 c -13.99537,3.70435 -27.8921,7.84797 -42.00794,11.01557 -24.3443,5.46271 -48.909,9.64081 -73.71362,12.71838 -19.5459,2.42499 -39.08966,3.90662 -58.72428,4.17279 -29.64267,0.4021 -59.17959,-0.72583 -88.70471,-4.328 -29.46655,-3.59515 -58.46445,-8.94043 -87.29172,-15.95978 -35.8609,-8.73205 -70.43353,-21.07757 -104.64915,-34.63702 -5.69794,-2.25812 -11.14388,-5.43042 -17.81423,-4.95093 -0.56654,3.21063 1.92431,4.75958 3.75745,6.46045 19.09454,17.7168 41.10764,31.18494 64.22672,42.76361 25.9418,12.99237 53.1217,22.84888 81.1827,30.41626 28.0496,7.56421 56.5774,12.49738 85.4253,14.67932 21.11377,1.59705 42.28906,3.74408 63.63598,1.91773 15.71845,-1.34485 31.51252,-1.41675 47.25824,-3.28901 36.17298,-4.30108 71.44239,-11.88397 105.77185,-24.28851 38.33893,-13.85339 74.35065,-31.72473 106.0785,-57.60498 5.09521,-4.15625 10.62597,-7.90106 14.77349,-14.10278 -15.43896,4.28381 -29.43042,10.53088 -43.72259,15.87439 -18.08936,6.76324 -36.44678,12.69403 -55.48199,19.14251 M 107.78748,427.4359 c -15.514188,12.83349 -31.054778,25.61444 -45.333738,39.87768 -17.84277,17.82312 -32.567006,37.75623 -43.1176,60.73111 -1.185512,2.58154 -1.145996,4.43115 0.37085,6.85693 13.514545,21.61268 29.520801,41.07258 49.25653,57.30707 5.19947,4.27704 10.72954,8.15229 17.37049,13.16516 -0.6236,-3.86541 -0.81821,-6.15002 -1.37534,-8.3424 -2.71394,-10.67994 -4.11101,-21.53589 -4.97429,-32.51007 -1.7808,-22.63788 1.06324,-44.50989 10.23622,-65.39518 11.173728,-25.44058 29.150668,-45.51812 50.044528,-63.29287 22.16521,-18.8563 46.54228,-34.31537 72.257,-47.84726 23.81461,-12.53199 48.694,-22.59653 74.36521,-30.21018 41.62774,-12.34604 84.34481,-18.94394 127.82,-20.16363 6.01844,-0.16883 5.82523,-0.29972 5.97065,-8.48084 0.0921,-5.17981 -2.48624,-5.53824 -6.58008,-5.34634 -33.10388,1.55169 -65.92273,5.72915 -98.7247,10.21875 -42.414,5.80514 -84.08164,15.30292 -125.75946,24.79556 -1.85929,0.42352 -3.37365,1.20337 -4.73134,2.54865 -23.93651,23.71872 -50.29189,44.61666 -77.09493,66.08786 m 721.64679,48.99862 c -16.38232,-17.62222 -34.85876,-32.90088 -53.57629,-47.91357 -26.62903,-21.35828 -53.87146,-42.01407 -77.27814,-67.07981 -1.70972,-1.83087 -3.77118,-2.59921 -6.0813,-3.13021 -20.74603,-4.76871 -41.39618,-10.00885 -62.25427,-14.22019 -19.54993,-3.9472 -39.23199,-7.24994 -59.00812,-10.0697 -23.22723,-3.31186 -46.46563,-6.33682 -69.85101,-8.14972 -11.28619,-0.87494 -22.60974,-1.25885 -33.90784,-1.99576 -3.48547,-0.22732 -4.96325,1.14008 -4.74215,4.57468 0.0962,1.49399 0.0928,3.00119 0.0253,4.49747 -0.14252,3.15893 1.30694,4.57092 4.47357,4.52026 9.5075,-0.15213 18.90887,1.4324 28.37408,1.86911 30.93506,1.42734 61.14069,7.62396 90.82465,15.63702 38.52124,10.39859 75.28796,25.48938 109.32312,46.74137 28.8247,17.99853 55.67071,38.31592 77.45422,64.70151 25.92633,31.40371 34.59772,67.47982 29.16889,107.45199 -1.38324,10.18451 -3.09534,20.29639 -5.48285,30.73584 0.95538,-0.3692 1.42834,-0.45386 1.78534,-0.70404 24.82324,-17.39557 45.71008,-38.48871 62.0794,-64.17895 4.28607,-6.72675 4.4729,-11.77295 0.71668,-18.57233 -8.83423,-15.99152 -19.28534,-30.71655 -32.04328,-44.71497 m -301.42639,2.48642 c -18.3692,-8.59994 -37.59112,-14.1662 -57.82355,-15.95385 -7.2333,-0.63913 -7.4541,-0.25382 -7.45312,7.26529 0.005,35.46273 0.0218,70.92547 0.0294,106.38824 0.002,9.6496 -0.0117,9.56458 9.30801,8.94592 21.53668,-1.42956 41.88654,-7.34131 61.31665,-16.46374 10.64618,-4.99842 20.06513,-11.91571 27.62421,-20.99164 7.58441,-9.10638 12.26965,-19.15058 7.2569,-31.25189 -2.23511,-5.39582 -5.13581,-10.42478 -8.91919,-14.93326 -8.41205,-10.02411 -19.14948,-16.87827 -31.33936,-23.00507 M 416.95316,586.41682 c 3.84275,0.17615 3.65717,-2.56646 3.65671,-5.10986 -0.007,-37.99762 -0.0803,-75.99542 0.0258,-113.99271 0.0132,-4.74905 -1.80744,-5.39001 -6.07517,-4.86493 -17.61831,2.16776 -34.7344,6.33973 -51.12811,13.02936 -17.34689,7.07861 -32.94238,16.69135 -43.40561,33.02579 -8.22793,12.84491 -8.19613,23.61401 0.3815,36.25879 7.53687,11.11047 18.09287,18.64777 29.91336,24.26318 20.78897,9.87598 42.86972,15.30249 66.6315,17.39038 z"
   style="fill:url(#radialGradient1997);fill-opacity:1" />
<text
   xml:space="preserve"
   style="font-size:800px;fill:#000000"
   x="922.7569"
   y="722.97321"
   id="text4993"><tspan
     sodipodi:role="line"
     id="tspan4991"
     x="922.7569"
     y="722.97321"
     style="font-style:normal;font-variant:normal;font-weight:normal;font-stretch:normal;font-size:800px;font-family:sans-serif;-inkscape-font-specification:sans-serif">FEMWELL</tspan></text></svg>
